<?xml version="1.0" encoding="utf-8"?>
<!-- Uploaded to: SVG Repo, www.svgrepo.com, Generator: SVG Repo Mixer Tools -->
<svg fill="#000000" width="800px" height="800px" viewBox="0 0 32 32" version="1.1" xmlns="http://www.w3.org/2000/svg">
<title>arrow-up-right-from-square</title>
<path d="M26 15.536c-0.414 0-0.75 0.336-0.75 0.75v0 12.964h-22.5v-22.5h12.964c0.414 0 0.75-0.336 0.75-0.75s-0.336-0.75-0.75-0.75v0h-13.714c-0.414 0-0.75 0.336-0.75 0.75v0 24c0 0.414 0.336 0.75 0.75 0.75h24c0.414-0 0.75-0.336 0.75-0.75v0-13.714c-0-0.414-0.336-0.75-0.75-0.75v0zM30.748 1.95v-0.001c-0.011-0.16-0.070-0.304-0.163-0.42l-0.001 0c-0.025-0.030-0.050-0.057-0.078-0.083l-0.001-0-0.002-0.001c-0.131-0.121-0.307-0.195-0.5-0.195h-10.004c-0.414 0-0.75 0.336-0.75 0.75s0.336 0.75 0.75 0.75v0h8.189l-16.72 16.719c-0.135 0.136-0.218 0.323-0.218 0.529 0 0.415 0.336 0.751 0.751 0.751 0.206 0 0.393-0.083 0.528-0.218l16.72-16.721v8.189c0 0.414 0.336 0.75 0.75 0.75s0.75-0.336 0.75-0.75v0-9.995z"></path>
</svg>